# xmcd
#
# Track frame offsets:
# 150
# 15719
# 37517
# 54878
# 71943
# 85471
# 105825
# 122221
# 135388
# 153216
# 166523
# 182286
# 199133
# 214344
# 233247
# 254047
# 274117
# 286609
# 297732
# 319308
# 337221
#
# Disc length: 4767 seconds
#
#
# Revision: 0
# Processed by: cddbd v1.5.1PL0 Copyright (c) Steve Scherf et al.
# Submitted via: FreeRIP 2.90 
#
DISCID=2f129d15
DTITLE=Os Arianos - Jadson e Milton - Acústico
DYEAR=2005
DGENRE=Acoustic
TTITLE0=Saudade
TTITLE1=Talismã
TTITLE2=Só Pro Meu Prazer
TTITLE3=Um Sonho de Amor
TTITLE4=Aguenta Coração
TTITLE5=A Força do Amor
TTITLE6=Ainda é Tempo
TTITLE7=O Amor Está Aqui
TTITLE8=Se Não Tivesse Ido
TTITLE9=Depois Que Você Matar Meu Coração
TTITLE10=Essa Noite Foi Maravilhosa
TTITLE11=Seguir em Frente
TTITLE12=Apaixonado (Imbranato)
TTITLE13=Beijar na Boca é Bom
TTITLE14=Coração de Pedra
TTITLE15=Dou a Vida Por um Beijo
TTITLE16=Só Pensando em Você
TTITLE17=Machuca Demais
TTITLE18=Yolanda
TTITLE19=Você me Vira a Cabeça
TTITLE20=Tinha Que Ser Agora
EXTD=CD ao vivo gravado nas cidades de Itabaiana/SE e Serrinha/BA
EXTT0=
EXTT1=
EXTT2=
EXTT3=
EXTT4=
EXTT5=
EXTT6=
EXTT7=
EXTT8=
EXTT9=
EXTT10=
EXTT11=
EXTT12=
EXTT13=
EXTT14=
EXTT15=
EXTT16=
EXTT17=
EXTT18=
EXTT19=
EXTT20=
PLAYORDER=
